<svg xmlns="http://www.w3.org/2000/svg" viewBox="0 0 64 64" id="BarChart">
  <path d="M47.5 17.05h5.62v40.53H47.5zM35.29 26.34h5.62v31.24h-5.62zM23.09 33.9h5.62v23.68h-5.62zM10.87 41.82h5.63v15.77h-5.63zM57.71 62.06H6.29a1 1 0 0 0 0 1.94h51.42a1 1 0 1 0 0-1.94zM13.69 34.89a1 1 0 0 0 .68-.28L45.59 3.39v1.05a1 1 0 0 0 .94 1 1 1 0 0 0 1-.94l.08-3.5V.95a.92.92 0 0 0-.05-.28s0 0 0-.06a1 1 0 0 0-.17-.27.2.2 0 0 0-.07-.06 1 1 0 0 0-.2-.15L47 .08a1 1 0 0 0-.29-.08H42.4a1 1 0 1 0 0 1.94h1.9L13 33.24a1 1 0 0 0 .69 1.65z" fill="#0151c1" class="color000000 svgShape"></path>
</svg>
