<svg xmlns="http://www.w3.org/2000/svg" fill-rule="evenodd" stroke-linejoin="round" stroke-miterlimit="2" clip-rule="evenodd" viewBox="0 0 64 64" id="notes">
  <g transform="translate(-2848 -88)" fill="#0151c1" class="color000000 svgShape">
    <path d="M2890,94L2886,94L2886,92C2886,90.896 2885.1,90 2884,90C2882.9,90 2882,90.896 2882,92L2882,94L2878,94L2878,92C2878,90.896 2877.1,90 2876,90C2874.9,90 2874,90.896 2874,92L2874,94L2870,94L2870,92C2870,90.896 2869.1,90 2868,90C2866.9,90 2866,90.896 2866,92L2866,94L2859,94C2857.89,94 2857,94.895 2857,96L2857,148C2857,149.105 2857.89,150 2859,150L2901,150C2902.11,150 2903,149.105 2903,148L2903,96C2903,94.895 2902.11,94 2901,94L2894,94L2894,92C2894,90.896 2893.1,90 2892,90C2890.9,90 2890,90.896 2890,92L2890,94ZM2866,98L2861,98C2861,98 2861,146 2861,146C2861,146 2899,146 2899,146L2899,98L2894,98L2894,100C2894,101.104 2893.1,102 2892,102C2890.9,102 2890,101.104 2890,100L2890,98L2886,98L2886,100C2886,101.104 2885.1,102 2884,102C2882.9,102 2882,101.104 2882,100L2882,98L2878,98L2878,100C2878,101.104 2877.1,102 2876,102C2874.9,102 2874,101.104 2874,100L2874,98L2870,98L2870,100C2870,101.104 2869.1,102 2868,102C2866.9,102 2866,101.104 2866,100L2866,98ZM2870,138L2890,138C2891.1,138 2892,137.104 2892,136C2892,134.896 2891.1,134 2890,134L2870,134C2868.9,134 2868,134.896 2868,136C2868,137.104 2868.9,138 2870,138ZM2870,130L2890,130C2891.1,130 2892,129.104 2892,128C2892,126.896 2891.1,126 2890,126L2870,126C2868.9,126 2868,126.896 2868,128C2868,129.104 2868.9,130 2870,130ZM2870,122L2890,122C2891.1,122 2892,121.104 2892,120C2892,118.896 2891.1,118 2890,118L2870,118C2868.9,118 2868,118.896 2868,120C2868,121.104 2868.9,122 2870,122ZM2870,114L2890,114C2891.1,114 2892,113.104 2892,112C2892,110.896 2891.1,110 2890,110L2870,110C2868.9,110 2868,110.896 2868,112C2868,113.104 2868.9,114 2870,114Z" fill="#0151c1" class="color000000 svgShape"></path>
  </g>
</svg>
