<svg xmlns="http://www.w3.org/2000/svg" viewBox="0 0 512 512" id="Tags">
  <path d="M420.64 265.066 203.759 48.761a17.233 17.233 0 0 0-12.133-5.039l-174.31-.575h-.058a17.248 17.248 0 0 0-12.202 5.057A17.252 17.252 0 0 0 0 60.462l.575 174.304a17.239 17.239 0 0 0 5.039 12.133L221.92 463.78a17.244 17.244 0 0 0 12.207 5.074h.012c4.579 0 8.969-1.818 12.208-5.057l174.31-174.31a17.213 17.213 0 0 0 5.057-12.213 17.282 17.282 0 0 0-5.074-12.208zM234.157 427.175 35.069 227.552 34.574 77.72l149.832.495 199.622 199.087-149.871 149.873z" fill="#0151c1" class="color000000 svgShape"></path>
  <path d="M125.411 125.411c-23.794 0-43.146 19.352-43.146 43.146s19.352 43.146 43.146 43.146 43.146-19.352 43.146-43.146c0-23.793-19.352-43.146-43.146-43.146zm0 51.776c-4.758 0-8.629-3.872-8.629-8.629s3.872-8.629 8.629-8.629c4.758 0 8.629 3.872 8.629 8.629s-3.871 8.629-8.629 8.629zm381.515 87.879L290.045 48.761c-6.748-6.737-17.678-6.719-24.403.029-6.731 6.754-6.719 17.678.034 24.409l204.645 204.104L308.23 439.394c-6.742 6.737-6.742 17.667 0 24.403 3.371 3.371 7.784 5.057 12.202 5.057s8.831-1.686 12.202-5.057l174.31-174.31a17.217 17.217 0 0 0 5.057-12.213 17.273 17.273 0 0 0-5.075-12.208z" fill="#0151c1" class="color000000 svgShape"></path>
</svg>
